<svg viewBox="0 0 3519 720" xmlns="http://www.w3.org/2000/svg"><g fill="none" fill-rule="evenodd"><g fill-rule="nonzero"><path d="M720 360c0 32.56-4.32 64.12-12.43 94.13A360.02 360.02 0 01595.6 632.2 358.55 358.55 0 01360 720C161.18 720 0 558.82 0 360S161.18 0 360 0s360 161.18 360 360z" fill="#0078CF"/><g fill="#F2F2F2"><path d="M707.82 453.5a359.62 359.62 0 01-111.96 177.9c-5.22.27-10.67.4-16.33.4-74.74 0-116.28-46.66-136.92-81.67l67.76-40.68s23.06 48.94 66.27 48.94c43.23 0 60.52-14.4 60.52-47.5 0-40.3-139.76-54.7-161.37-123.79-21.62-69.1 7.2-166.99 108.06-159.78 63.04 4.49 98.5 35.42 116.23 57.98l-67.24 48.53c-14.41-41.73-73.48-41.73-85.02-7.2-11.52 34.56 27.38 54.7 87.9 74.86 31.1 10.35 56.1 29.44 72.1 52zM423.47 238.34H117.15v72.23H229.4V624.2h81.81V310.57h112.26z"/></g></g><text font-family="Inconsolata-Bold, Inconsolata" font-size="400" font-weight="bold" letter-spacing=".18" fill="#3C6797"><tspan x="927.36" y="494">CompatFactory</tspan></text></g></svg>